<?xml version="1.0" standalone="no"?><!DOCTYPE svg PUBLIC "-//W3C//DTD SVG 1.1//EN" "http://www.w3.org/Graphics/SVG/1.1/DTD/svg11.dtd"><svg t="1763367563580" class="icon" viewBox="0 0 1024 1024" version="1.1" xmlns="http://www.w3.org/2000/svg" p-id="24323" xmlns:xlink="http://www.w3.org/1999/xlink" width="200" height="200"><path d="M71.9 295.1c23-0.2 45.9-0.2 68.9-0.1 4.2 0 6.8-1.7 7.9-5.8 0.6-2.1 1.6-4.1 2.4-6.1 9.2-22.1 25.4-36.1 49-40.4 15.1-2.8 30.4-4.5 45.6-6.1 37.1-3.9 74.3-6.6 111.6-8.4 39.3-1.9 78.6-3.1 117.9-3.6 56.5-0.7 113 0.2 169.5 2.6 48.2 2.1 96.4 5.1 144.4 10.7 12.9 1.5 25.8 2.7 38.4 5.7 24.1 5.7 38.9 21.5 47.2 44.1 1.5 4.1 3 7.2 8.1 7.2 23.4 0 46.7 0 70.1 0.1 5.1 0 7.3-2.6 6.6-7.6-1-7.5-1.7-15.1-3.3-22.5-6.8-33.4-24.6-58.5-56.4-72.4-26.2-11.4-54.1-16.3-82-21.2-47.6-8.4-95.6-13-143.8-16.2-53.6-3.6-107.3-5.7-156-5.1-32.2 0-59.3-0.1-86.5 1.1-27.3 1.3-54.7 2-81.9 4-38 2.7-75.9 6.1-113.7 11.6-30.4 4.4-60.6 9.5-90.2 17.9C91.6 200.1 68 234.3 64.6 287c-0.3 5.4 1.4 8.2 7.3 8.1zM951.7 729.1c-22 0-43.9 0.2-65.9-0.1-6.1-0.1-9.1 1.8-11.3 7.8-9.2 25.4-27.1 40.6-54.1 44.8-38.3 5.9-76.9 9.1-115.5 11.7-52 3.6-104.1 5-156.2 6-48.9 0.9-97.8-0.2-146.7-2-28.5-1.1-57.1-2.2-85.5-4.2-35-2.4-70-5.4-104.8-10.3-15.4-2.2-30-5.9-42.3-16.3-10-8.5-15.8-19.4-20.2-31.3-1.6-4.4-4-6.3-8.8-6.2-22.8 0.2-45.5 0.1-68.3 0-5.4 0-7.6 2-7.4 7.4 0.2 7 1.3 13.9 2.6 20.8 6.6 35.4 25.6 60.9 59.2 74.9 27.5 11.4 56.6 16.5 85.7 21.3 54.6 9 109.7 13.7 164.9 16.9 44.9 2.5 89.8 3.7 141 3.7 45.7-0.1 97.6-1.6 149.4-5 21.5-1.4 43-3.4 64.4-5.3 26.4-2.4 52.7-5.7 78.9-10.1 27.3-4.5 54.6-9.5 80.8-18.9 28.5-10.1 48.9-28.7 59.6-57.3 4.8-12.8 7.1-26.1 8.3-39.7 0.5-6.8-0.8-8.6-7.8-8.6z" fill="#7DA743" p-id="24324"></path><path d="M215.4 677.4c5.9 6.4 12.7 11.5 20.3 15.7 29.1 16 60.5 19 92.9 16.2 2.6-0.2 4.5-0.9 5 2.8 2.4 17.6 18.1 24.7 32.6 26.5 17.1 2.1 34.3 0.9 51.5 1.1 6.3 0.1 8.6-2.5 8.7-8.8 0.1-7.6 0.1-15.2 0-22.8-0.1-7.1-1.8-8.8-8.9-8.9-11.8-0.1-23.6 0-35.4-0.1-2.5 0-5.2 0.6-7.5-2 6.6-4.2 13.7-7.5 19.6-12.5 12-10 20.4-21.8 20.4-38.2V376.8c0-8.9-2.5-16.9-7.6-24.2-8.8-12.8-21.1-21.1-35-27.1-28.8-12.4-58.9-15.1-89.7-10.6-20.4 3-39.6 9.3-56.4 21.7-15.4 11.3-23.5 25.8-23.4 45.8 0.5 87.3 0.3 174.6 0.1 261.9 0 12.8 4.2 23.7 12.8 33.1z m70-299.5c0-7 3.1-12.2 9.1-15.8 8.8-5.3 22.2-4.8 30.6 1.3 4.9 3.5 7.1 8.2 7 14.3-0.1 45.1-0.1 90.2-0.1 135.4v134.2c0 10.1-3.7 15.2-13.5 18.6-8 2.8-15.7 2.3-23.2-1.5-6.6-3.4-10.1-8.8-10.1-16.4 0.2-90 0.2-180.1 0.2-270.1zM843.6 336.5c3.3-8.5 0.6-12.7-8.4-12.8-22-0.1-43.9 0-65.9-0.2-5 0-7.7 2.1-9.4 6.6-7.2 18.8-14.5 37.5-21.8 56.3-7.4 18.9-14.7 37.8-22.8 58.5l-4.8-12-39.6-102c-1.6-4.1-3.4-7.4-8.8-7.4-23.6 0.2-47.1 0.1-70.7 0.3-5.3 0-7.6 2.9-6.7 8.1 0.3 1.9 1.1 3.8 1.8 5.7 27.7 71.6 55.4 143.1 83.2 214.6 1.6 4 2.3 7.9 2.3 12.2-0.1 41.5 0 83.1 0 124.6 0 8.1 2.1 10.1 10.3 10.2h64.1c9.1 0 10.9-1.8 10.9-10.7V563.3c0-3.5 0.6-6.6 1.9-9.9 28.3-72.3 56.3-144.6 84.4-216.9zM949.8 323.7h-61.7c-10.4 0-11.6 1.3-11.6 11.7V688.2c0 9 1.9 10.8 10.9 10.8h61.7c9 0 11-1.9 11-10.7V333.7c0-8.3-1.8-10-10.3-10zM481 324c-8.7 0-10.7 1.9-10.8 10.4 0 118.2-0.1 236.4-0.1 354.7 0 8.4 1.9 10.3 10.2 10.3h62.3c9.5 0 11-1.6 11-11.2V512.1 334.8c0-8.5-2.1-10.7-10.4-10.7-20.7-0.2-41.4-0.2-62.2-0.1zM74.3 699.1h62.3c9 0 10.8-1.8 10.8-10.8V572.7 455.9c0-8-1.8-9.8-9.9-9.8H74c-8 0-10.2 2.1-10.2 10.4v232.4c0.1 8.1 2.3 10.2 10.5 10.2zM73.4 407h64.7c7.7 0 9.3-1.8 9.3-9.7v-31.8-33c0-6.8-2.1-8.9-8.9-8.9H73.2c-6.8 0-9.2 2.1-9.2 8.8-0.1 21.8-0.1 43.5 0 65.3 0 7.2 2.3 9.2 9.4 9.3z" fill="#7DA743" p-id="24325"></path></svg>