<?xml version="1.0" standalone="no"?><!DOCTYPE svg PUBLIC "-//W3C//DTD SVG 1.1//EN" "http://www.w3.org/Graphics/SVG/1.1/DTD/svg11.dtd"><svg t="1763469724866" class="icon" viewBox="0 0 1024 1024" version="1.1" xmlns="http://www.w3.org/2000/svg" p-id="1757" xmlns:xlink="http://www.w3.org/1999/xlink" width="200" height="200"><path d="M13.824 148.992h998.4V215.04H13.824V148.992z" fill="#FD919E" p-id="1758"></path><path d="M952.32 151.552h59.392v71.168H952.32V151.552z" fill="#E8677D" p-id="1759"></path><path d="M1012.224 163.328H13.824c-6.656 0-11.776-5.632-11.776-11.776 0-6.656 5.632-11.776 11.776-11.776h998.4c6.656 0 11.776 5.632 11.776 11.776 0 6.656-5.632 11.776-11.776 11.776z m0 63.488H13.824C7.168 226.816 2.048 221.184 2.048 215.04c0-6.656 5.632-11.776 11.776-11.776h998.4c6.656 0 11.776 5.632 11.776 11.776 0 6.656-5.632 11.776-11.776 11.776z" fill="#4C4372" p-id="1760"></path><path d="M611.84 339.968h-199.68V118.784c0-24.064 19.456-44.032 44.032-44.032H568.32c24.064 0 44.032 19.456 44.032 44.032v221.184z" fill="#D3E6F8" p-id="1761"></path><path d="M616.448 342.016h-60.416v-276.48c33.28 0 60.416 27.136 60.416 60.416v216.064z" fill="#A4CFF2" p-id="1762"></path><path d="M517.632 467.968H506.88l-39.424-41.984V339.968h89.088v86.016l-38.912 41.984z" fill="#7BABF1" p-id="1763"></path><path d="M473.6 536.576l189.44 110.08" fill="#A4CFF2" p-id="1764"></path><path d="M467.3792 547.54816l12.88704-22.1184 189.35296 110.2848-12.88192 22.12352z" fill="#70B8E6" p-id="1765"></path><path d="M420.352 568.32l189.44 110.08" fill="#A4CFF2" p-id="1766"></path><path d="M413.89056 579.2l12.88704-22.1184 189.35296 110.28992-12.88192 22.1184z" fill="#70B8E6" p-id="1767"></path><path d="M367.616 599.552l189.44 110.592" fill="#A4CFF2" p-id="1768"></path><path d="M361.10336 610.688l12.88704-22.1184 189.35296 110.2848-12.88192 22.12352z" fill="#70B8E6" p-id="1769"></path><path d="M346.91072 638.11072l199.40864-115.4048 12.8256 22.15424-199.41376 115.4048zM399.16544 669.78304l199.40864-115.4048 12.8256 22.15424-199.41376 115.4048zM451.41504 701.45536l199.41376-115.40992 12.82048 22.15936-199.40864 115.4048zM310.30272 685.69088l12.75904-22.1952 198.4256 114.06848-12.75904 22.1952zM312.63744 751.31904l12.75904-22.1952 198.4256 114.06336-12.75904 22.1952zM314.71616 817.3824l12.75904-22.1952 198.4256 114.06336-12.75904 22.1952z" fill="#3ABBEE" p-id="1770"></path><path d="M342.016 649.216h25.6v229.376h-25.6zM395.776 678.4h25.6v229.376h-25.6zM450.048 707.584h25.6V936.96h-25.6zM502.3232 781.25568l198.4-114.08896 12.76416 22.19008-198.4 114.08896zM500.28032 847.28832l198.4-114.08896 12.76416 22.19008-198.4 114.08896zM498.23744 913.32096l198.4-114.08896 12.76416 22.19008-198.4 114.08896z" fill="#3ABBEE" p-id="1771"></path><path d="M656.384 653.312h25.6v229.376h-25.6zM602.624 682.496h25.6v229.376h-25.6zM548.352 711.68h25.6v229.376h-25.6z" fill="#3ABBEE" p-id="1772"></path><path d="M512 978.432c-2.048 0-4.096-0.512-6.144-1.536l-195.072-112.64c-3.584-2.048-6.144-6.144-6.144-10.24v-225.28c0-4.096 2.048-8.192 6.144-10.24l195.072-112.64c3.584-2.048 8.192-2.048 11.776 0l195.072 112.64c3.584 2.048 6.144 6.144 6.144 10.24v225.28c0 4.096-2.048 8.192-6.144 10.24l-195.072 112.64c-1.536 1.024-3.584 1.536-5.632 1.536z m-183.296-131.584l183.296 105.984 183.296-105.984V634.88L512 529.408 328.704 634.88v211.968z" fill="#4C4372" p-id="1773"></path><path d="M512 753.152c-4.096 0-8.192-2.048-10.24-6.144-3.072-5.632-1.536-12.8 4.608-16.384l195.072-112.64c5.632-3.072 12.8-1.536 16.384 4.608 3.072 5.632 1.536 12.8-4.608 16.384l-195.072 112.64c-2.048 1.024-4.096 1.536-6.144 1.536z" fill="#4C4372" p-id="1774"></path><path d="M512 978.432c-6.656 0-11.776-5.632-11.776-11.776v-218.624l-189.44-109.568c-5.632-3.072-7.68-10.752-4.608-16.384s10.752-7.68 16.384-4.608l195.072 112.64c3.584 2.048 6.144 6.144 6.144 10.24v225.28c0 7.68-5.12 12.8-11.776 12.8zM611.84 351.744h-199.68c-6.656 0-11.776-5.632-11.776-11.776V118.784c0-30.72 25.088-55.808 55.808-55.808H568.32c30.72 0 55.808 25.088 55.808 55.808v221.184c-0.512 6.656-5.632 11.776-12.288 11.776z m-187.904-23.552h176.128V118.784c0-17.408-14.336-32.256-32.256-32.256H456.192c-17.408 0-32.256 14.336-32.256 32.256v209.408z" fill="#4C4372" p-id="1775"></path><path d="M517.632 480.256H506.88c-3.584 0-6.656-1.536-8.704-3.584l-38.912-41.984c-2.048-2.048-3.072-5.12-3.072-8.192V339.968c0-6.656 5.632-11.776 11.776-11.776h89.088c6.656 0 11.776 5.632 11.776 11.776v86.016c0 3.072-1.024 5.632-3.072 8.192l-38.912 41.984c-3.072 2.56-6.144 4.096-9.216 4.096z m-5.632-24.064l32.768-34.816V351.744H479.232v69.632l32.768 34.816zM611.84 250.368H415.232c-6.656 0-11.776-5.632-11.776-11.776 0-6.656 5.632-11.776 11.776-11.776h196.608c6.656 0 11.776 5.632 11.776 11.776 0 6.656-5.12 11.776-11.776 11.776z" fill="#4C4372" p-id="1776"></path><path d="M916.992 1024H107.008C48.128 1024 0 975.872 0 916.992V107.008C0 48.128 48.128 0 107.008 0H916.48c59.392 0 107.52 48.128 107.52 107.008V916.48c0 59.392-48.128 107.52-107.008 107.52zM107.008 23.552C61.44 23.552 23.552 61.44 23.552 107.52v809.472c0 46.08 37.376 83.456 83.456 83.456H916.48c46.08 0 83.456-37.376 83.456-83.456V107.008c0-46.08-37.376-83.456-83.456-83.456H107.008z" fill="#4C4372" p-id="1777"></path></svg>