<?xml version="1.0" standalone="no"?><!DOCTYPE svg PUBLIC "-//W3C//DTD SVG 1.1//EN" "http://www.w3.org/Graphics/SVG/1.1/DTD/svg11.dtd"><svg t="1763435320211" class="icon" viewBox="0 0 1024 1024" version="1.1" xmlns="http://www.w3.org/2000/svg" p-id="13191" xmlns:xlink="http://www.w3.org/1999/xlink" width="200" height="200"><path d="M895.290576 0.948989H128.709424C56.315099 0.948989 0.949109 56.315099 0.949109 128.709424v766.581152c0 72.399262 55.36599 127.760314 127.760315 127.760315h766.581152c72.399262 0 127.760314-55.361173 127.760315-127.760315V128.709424C1023.051011 56.315099 967.689838 0.948989 895.290576 0.948989zM823.321798 691.674494H540.896776v88.781571c0 27.96308-6.990078 39.848138-30.059501 46.838336-23.768913 6.990078-62.917441 6.291672-123.735932 6.291672-2.796031-12.583464-10.485839-28.661365-16.777631-41.244949 51.730668 1.398016 95.772973 1.398016 109.054842 0.698405 13.28187-0.698406 15.379616-3.495761 15.379616-13.281869V691.674494H208.837266v-41.244829h285.920784v-44.042184c36.351173-9.786229 76.199311-26.564944 108.356437-44.041583H324.185106V523.89698h335.553825l9.787433-2.796031 29.361096 24.467318c-41.246154 31.458118-101.366239 61.518824-157.990684 82.490501v22.370897h282.425142V691.674494z m-17.477121-132.823876c-93.675227-32.856134-203.4298-99.96702-268.443542-173.369697v119.541284h-46.138606v-115.347237C425.550141 463.077766 317.893434 527.39262 227.014117 561.64677c-7.689808-11.184847-20.972882-27.263349-30.060705-36.351173 83.889119-26.564944 180.360377-80.393357 243.276614-139.814435h-229.994624v-40.546544h281.027127v-72.702948c-75.499701 6.29119-153.795433 10.485839-224.401357 12.582863-0.69961-10.485839-6.291672-27.263349-11.185449-37.749911 158.68909-5.592664 355.128692-20.273272 456.493727-45.439598l38.448918 34.254751c-58.02246 13.98148-132.823756 24.467318-213.217113 32.157126v76.897717h285.221174v40.546544H591.229428c62.917441 58.72207 159.38882 110.45346 244.675834 136.318794-9.787313 9.087703-22.370777 25.166326-30.060585 37.050662z" fill="#1296db" p-id="13192"></path></svg>