<?xml version="1.0" standalone="no"?><!DOCTYPE svg PUBLIC "-//W3C//DTD SVG 1.1//EN" "http://www.w3.org/Graphics/SVG/1.1/DTD/svg11.dtd"><svg t="1763539596570" class="icon" viewBox="0 0 1024 1024" version="1.1" xmlns="http://www.w3.org/2000/svg" p-id="4287" xmlns:xlink="http://www.w3.org/1999/xlink" width="200" height="200"><path d="M1019.136 713.033143v-313.856c0-28.525714-18.212571-54.491429-46.811429-64.877714l-104.045714-28.525715-150.820571 308.662857S561.371429 222.793143 561.371429 220.233143l-163.84-44.105143c-7.789714-2.596571-15.616-2.596571-23.405715-2.596571-46.811429 0-80.603429 36.315429-80.603428 80.420571V720.822857c0 41.508571 33.792 75.227429 75.410285 75.227429h7.789715l65.024-5.193143h-5.193143V300.580571L629.028571 770.084571l143.030858-12.946285 184.649142-360.594286v262.034286c0 93.366857-70.217143 171.154286-166.436571 184.137143L327.314286 884.224h-10.386286c-78.043429 0-140.434286-62.244571-140.434286-137.472V272.091429c0-51.894857-2.596571-98.56 33.792-142.665143 28.598857-36.315429 75.410286-54.491429 119.625143-54.491429 15.616 0 31.232 2.596571 46.811429 7.789714L909.897143 230.546286h7.789714a28.818286 28.818286 0 0 0 28.635429-28.525715c0-12.982857-7.826286-23.332571-20.845715-25.965714L353.389714 20.48A268.470857 268.470857 0 0 0 262.326857 4.864c-142.994286 0-257.462857 111.542857-257.462857 249.051429v534.345142c0 127.085714 106.642286 230.875429 236.653714 230.875429h20.845715l517.485714-49.298286c137.874286-12.982857 239.286857-124.525714 239.286857-256.804571z" fill="#F06000" p-id="4288"></path></svg>