<?xml version="1.0" standalone="no"?><!DOCTYPE svg PUBLIC "-//W3C//DTD SVG 1.1//EN" "http://www.w3.org/Graphics/SVG/1.1/DTD/svg11.dtd"><svg t="1763467110175" class="icon" viewBox="0 0 3875 1024" version="1.1" xmlns="http://www.w3.org/2000/svg" p-id="23763" xmlns:xlink="http://www.w3.org/1999/xlink" width="756.8359375" height="200"><path d="M558.916335 4.079681H399.808765v575.23506L191.74502 4.079681H36.717131v1019.920319l159.10757-20.398406V444.685259l187.665339 534.438247 171.346613-20.398406 4.079682-954.645419m595.633466 0H713.944223v942.406375l444.685259-32.63745v-159.10757l-285.577689 20.398406V534.438247h216.223107V375.330677l-216.223107 4.079682V163.187251h285.577689L1154.549801 4.079681M1754.262948 4.079681H1260.621514v155.027889H1427.888446v738.42231l159.10757-4.079681v-734.342629H1754.262948V4.079681m550.756972 0h-448.76494v885.290837h159.10757v-367.171315h216.223107V367.171315h-216.223107v-203.984064h285.577689V4.079681M2407.011952 4.079681v893.450199l432.446215 20.398407v-159.10757l-273.338645-16.318725V0H2407.011952m562.996016 4.079681l4.079681 926.08765 159.10757 12.239044V4.079681h-163.187251m297.816733 0l187.665339 477.322709-203.984064 469.163347 167.266932 20.398406 118.310757-273.338645 114.231076 301.896414 183.585657 24.478088-203.984063-538.517928L3834.900398 4.079681h-175.426294l-114.231076 269.258964L3443.250996 4.079681h-175.426295" fill="#ED2517" p-id="23764"></path></svg>