<?xml version="1.0" standalone="no"?><!DOCTYPE svg PUBLIC "-//W3C//DTD SVG 1.1//EN" "http://www.w3.org/Graphics/SVG/1.1/DTD/svg11.dtd"><svg t="1763441987525" class="icon" viewBox="0 0 1024 1024" version="1.1" xmlns="http://www.w3.org/2000/svg" p-id="17407" xmlns:xlink="http://www.w3.org/1999/xlink" width="200" height="200"><path d="M679.936 468.992c-59.392-11.264-117.248 0-174.592 14.336-20.48 5.12-32.256 14.848-35.84 36.864-2.048 14.336-8.704 28.16-13.312 42.496-13.824 45.568-28.16 91.136-43.008 140.288 24.576 0 45.568-0.512 66.048 0.512 11.776 0.512 16.896-3.072 19.968-14.848 13.312-45.568 28.16-90.112 41.472-135.68 3.584-12.8 10.24-20.992 23.04-23.04 15.36-2.56 30.72-6.144 46.08-5.632 18.944 0.512 26.624 11.264 22.528 30.208-5.632 24.064-12.8 47.616-19.968 71.168-7.68 25.088-15.36 50.176-23.552 77.824 25.6 0 48.64 0.512 71.168-0.512 4.608 0 11.776-5.632 13.312-10.24 16.384-52.224 33.28-104.96 48.128-157.696 8.704-36.864-5.12-58.88-41.472-66.048z" p-id="17408"></path><path d="M671.744 193.024c7.168-12.8 0.512-19.456-11.776-17.92-10.752 1.024-21.504 5.12-31.232 10.24-14.848 8.192-28.16 18.944-43.008 26.624-5.12 2.56-14.336 2.56-19.456-0.512-3.072-2.048-4.096-12.288-2.048-17.408 3.072-10.24 9.728-19.456 13.312-30.208 3.072-9.216 4.608-18.944 6.656-28.672-10.24 1.536-20.48 2.56-30.72 5.12-4.096 1.024-8.192 4.608-11.264 7.68-14.848 14.336-29.184 29.696-45.056 43.008-6.656 5.632-17.92 5.632-27.136 8.192-1.024-9.216-4.608-18.432-3.072-27.136 2.048-12.8 8.192-24.576 11.264-36.864 3.584-13.312-4.096-21.504-16.896-16.384s-25.6 13.312-34.816 23.04c-13.312 14.848-23.04 32.768-35.84 48.128-4.096 5.12-10.24 8.704-16.384 12.288l-18.432-22.528c-1.536-5.632-3.072-11.776-4.608-17.408-6.144 3.072-13.312 4.608-17.92 9.216-5.632 5.12-9.728 12.288-12.8 18.944-6.656 13.824-12.288 28.672-19.456 42.496-2.048 4.096-9.728 8.704-13.312 7.68-4.096-1.024-8.192-7.68-9.216-12.288-1.536-7.68-0.512-16.384-0.512-24.576-2.048-1.024-4.608-1.536-6.656-2.56-5.632 7.168-12.8 14.336-16.896 22.528-11.776 25.088-23.04 50.688-32.768 76.8-25.6 67.072-5.12 120.832 61.44 147.456 111.616 44.544 219.648 28.672 318.464-36.864 54.784-36.352 65.536-86.016 40.96-146.432-6.144-14.848-4.096-27.136 6.144-39.424 9.216-10.24 16.384-20.992 23.04-32.256z" fill="#D60000" p-id="17409"></path><path d="M302.08 426.496c30.208 18.944 63.488 25.088 98.816 24.576 53.76-1.024 103.936-13.312 144.896-51.2 41.984-38.912 36.864-91.648-12.8-119.808-21.504-12.288-46.592-19.456-71.168-22.528-62.976-7.68-121.856 5.12-170.496 48.128-44.032 38.4-38.912 89.6 10.752 120.832z" fill="#FFFFFF" p-id="17410"></path><path d="M153.088 521.728c3.584-3.072 9.216-4.608 14.336-5.632 35.84-8.704 69.632-2.56 100.864 15.36 11.264 6.656 17.408 6.144 20.48-7.68 3.072-13.824 8.192-27.136 13.312-43.008-44.544-17.408-88.576-18.944-133.12-12.8-36.352 4.608-69.632 16.896-94.72 44.544-27.648 30.72-32.768 78.848 25.088 93.696 21.504 5.632 43.52 7.68 64.512 13.312 7.168 2.048 13.312 9.728 19.456 14.336-6.656 6.144-12.8 16.384-20.48 17.408-18.944 3.072-38.912 5.632-57.344 1.536-24.576-5.12-48.128-15.872-74.752-25.088-5.632 17.408-11.264 36.864-17.408 56.832 45.568 20.992 91.648 20.992 137.216 16.384 40.448-4.096 79.36-16.384 105.984-50.688 30.72-38.912 18.432-75.264-29.184-88.576-5.632-1.536-11.264-2.56-16.896-3.584-18.432-3.584-36.864-6.656-54.784-11.264-4.608-1.024-11.776-7.168-11.776-10.752 0.512-4.096 5.12-10.24 9.216-14.336z m180.224-26.112C311.808 605.184 279.04 715.264 284.16 832c12.8-10.24 23.552-21.504 29.184-34.816 39.936-97.792 78.848-196.608 118.272-295.936-36.352-2.048-65.536-3.584-98.304-5.632z m626.176-26.112c-51.712-9.728-103.424-5.632-154.624 4.096-4.096 1.024-9.728 4.608-11.264 8.192-5.632 14.336-9.728 28.672-14.848 46.592 9.728-2.56 15.36-5.12 21.504-5.632 33.28-2.56 66.56-6.656 99.84-6.144 24.064 0.512 30.208 12.8 23.552 35.84-7.168 24.064-14.336 48.64-22.016 72.704-2.048 5.632-5.12 13.312-9.728 15.872-21.504 12.8-44.544 17.92-69.12 11.264-13.312-3.584-18.944-14.336-12.8-25.088 5.632-10.24 14.848-19.968 25.088-24.576 11.776-5.632 26.624-5.12 39.424-9.216 6.144-2.048 12.8-7.168 15.872-12.8 4.608-8.192 5.632-18.432 9.216-29.696-50.176 2.048-98.304 4.608-139.264 33.28-13.312 9.216-24.576 25.088-31.744 40.448-16.896 35.84-2.56 66.048 35.84 73.728 75.264 14.336 143.872-3.584 204.288-50.176 4.608-3.584 8.192-10.24 9.728-15.872 9.728-28.672 18.944-57.856 27.136-87.04 13.312-43.52-1.536-67.584-46.08-75.776z m-628.224-117.76c12.288-37.888 57.344-63.488 96.256-54.272 26.624 6.144 43.52 28.672 43.008 56.832-1.024 50.688-61.44 89.6-108.032 69.632-28.16-11.776-40.96-41.472-31.232-72.192z" p-id="17411"></path><path d="M395.264 352.768a10.752 10.752 0 1 0 21.504 0 10.752 10.752 0 1 0-21.504 0z" p-id="17412"></path><path d="M356.864 389.12a23.552 23.552 0 1 0 47.104 0 23.552 23.552 0 1 0-47.104 0z" fill="#FFFFFF" p-id="17413"></path></svg>