<?xml version="1.0" standalone="no"?><!DOCTYPE svg PUBLIC "-//W3C//DTD SVG 1.1//EN" "http://www.w3.org/Graphics/SVG/1.1/DTD/svg11.dtd"><svg t="1763441965254" class="icon" viewBox="0 0 1163 1024" version="1.1" xmlns="http://www.w3.org/2000/svg" p-id="17252" xmlns:xlink="http://www.w3.org/1999/xlink" width="227.1484375" height="200"><path d="M447.860364 470.109091c45.614545-2.839273 91.461818 0.884364 136.052363 11.124364a349.090909 349.090909 0 0 1 135.261091 62.091636 226.676364 226.676364 0 0 1 56.32 63.441454c13.498182 23.505455 21.178182 50.129455 22.341818 77.498182a182.365091 182.365091 0 0 1-33.745454 109.474909 290.071273 290.071273 0 0 1-86.248727 80.151273 465.082182 465.082182 0 0 1-258.001455 65.070546 426.961455 426.961455 0 0 1-167.005091-38.912 258.327273 258.327273 0 0 1-108.264727-90.670546 165.888 165.888 0 0 1-24.994909-119.714909 208.523636 208.523636 0 0 1 57.949091-107.240727 338.478545 338.478545 0 0 1 88.622545-64.139637 467.781818 467.781818 0 0 1 181.806546-48.081454h-0.093091v-0.046546z m-14.708364 94.161454c-20.852364 1.396364-41.425455 6.050909-60.881455 13.73091a191.860364 191.860364 0 0 0-101.562181 91.601454 155.694545 155.694545 0 0 0-16.337455 78.941091c2.094545 32.209455 14.661818 62.696727 35.560727 86.574545a163.374545 163.374545 0 0 0 60.974546 43.473455 198.749091 198.749091 0 0 0 164.724363-8.471273 185.856 185.856 0 0 0 90.996364-100.212363 147.549091 147.549091 0 0 0-35.84-158.72 178.967273 178.967273 0 0 0-137.588364-46.871273l-0.046545-0.046546z" fill="#FFFFFF" p-id="17253"></path><path d="M471.598545 682.356364a21.736727 21.736727 0 0 1 26.205091 15.499636 22.853818 22.853818 0 0 1-13.591272 27.927273 21.643636 21.643636 0 0 1-27.601455-12.753455 24.808727 24.808727 0 0 1 1.210182-18.618182 23.319273 23.319273 0 0 1 13.777454-12.008727z m-97.652363 23.272727a52.689455 52.689455 0 0 1 60.369454 45.754182 61.207273 61.207273 0 0 1-52.736 67.723636 53.480727 53.480727 0 0 1-40.354909-11.170909 52.317091 52.317091 0 0 1-18.850909-32.581818 59.950545 59.950545 0 0 1 15.034182-50.082909c9.681455-10.612364 22.528-17.547636 36.491636-19.549091v-0.093091h0.046546z" fill="#FFFFFF" p-id="17254"></path><path d="M801.652364 0.930909a15.173818 15.173818 0 0 1 4.468363-0.558545h44.916364a34.490182 34.490182 0 0 0 11.729454 1.396363c5.585455 1.582545 11.357091 1.396364 16.896 2.978909 4.840727 0.558545 9.588364 1.536 14.24291 2.792728 9.495273 1.815273 18.804364 4.561455 27.787636 8.192 19.968 6.283636 39.144727 14.894545 57.157818 25.6 6.842182 2.932364 12.101818 8.610909 18.571636 12.101818 3.956364 2.001455 6.562909 5.259636 10.379637 7.121454 11.869091 8.890182 22.993455 18.804364 33.28 29.649455 2.606545 3.258182 6.330182 5.259636 8.750545 8.704 3.956364 5.026909 9.122909 8.843636 12.660364 14.149818 2.513455 3.816727 5.864727 6.795636 8.517818 10.472727 10.891636 14.661818 20.573091 30.254545 28.858182 46.592 4.747636 8.610909 8.983273 17.454545 12.660364 26.530909 4.840727 11.822545 8.983273 23.924364 12.38109 36.212364 6.376727 22.155636 10.472727 44.916364 12.101819 67.956364 2.234182 33.512727-0.418909 67.025455-7.773091 99.746909a70.749091 70.749091 0 0 1-10.752 28.485818 40.587636 40.587636 0 0 1-49.896728 13.172364 44.357818 44.357818 0 0 1-24.762181-42.914909c1.210182-7.773091 2.932364-15.592727 5.026909-23.179637 0.791273-6.795636 2.978909-13.498182 3.258182-20.340363a235.287273 235.287273 0 0 0-8.378182-102.632728c-2.466909-6.330182-3.723636-13.172364-6.516364-19.316363-4.840727-10.798545-9.588364-21.597091-15.406545-31.883637-4.375273-6.050909-7.354182-13.172364-12.148364-18.944-3.956364-4.654545-7.307636-9.774545-10.984727-14.661818a247.482182 247.482182 0 0 0-29.882182-29.230545 236.730182 236.730182 0 0 0-37.143273-25.972364 84.712727 84.712727 0 0 0-16.570182-7.586909c-7.214545-3.770182-15.220364-5.632-22.667636-9.076364-7.819636-2.513455-16.244364-4.049455-24.250182-6.516363a291.84 291.84 0 0 0-34.164363-3.025455 146.804364 146.804364 0 0 0-30.440728 1.349818 54.225455 54.225455 0 0 1-25.739636-3.025454 35.514182 35.514182 0 0 1-14.708364-10.612364c-3.956364-2.327273-4.142545-7.447273-6.423272-11.124364a26.717091 26.717091 0 0 1-4.096-15.825454c-0.372364-4.654545 0-9.309091 0.930909-13.963636a41.704727 41.704727 0 0 1 34.071272-30.906182c4.561455-1.768727 9.541818 0 14.056728-1.954909z" fill="#FFA21F" p-id="17255"></path><path d="M808.261818 156.858182c10.705455-0.930909 21.597091 0 32.488727-0.372364 4.514909 0 9.076364 0.744727 13.498182 1.954909 11.636364 1.908364 23.179636 5.166545 34.117818 9.728 10.705455 4.654545 20.805818 10.705455 30.254546 17.780364 6.283636 3.723636 11.729455 8.936727 17.687273 13.172364 8.378182 9.495273 16.197818 19.642182 24.017454 29.649454a174.545455 174.545455 0 0 1 27.973818 84.48c0.512 10.845091 0.325818 21.597091-0.605091 32.395636a79.034182 79.034182 0 0 1-14.987636 43.101091 38.027636 38.027636 0 0 1-31.650909 10.426182 36.305455 36.305455 0 0 1-23.738182-14.848 40.634182 40.634182 0 0 1-7.168-28.485818c1.117091-6.144 2.327273-12.101818 3.537455-18.478545a93.742545 93.742545 0 0 0-39.191273-89.460364 92.718545 92.718545 0 0 0-36.770909-14.103273 243.060364 243.060364 0 0 0-26.391273 0.279273 36.398545 36.398545 0 0 1-25.274182-10.612364 51.572364 51.572364 0 0 1-10.891636-19.828363 41.285818 41.285818 0 0 1 5.399273-28.951273c6.050909-9.774545 16.104727-16.290909 27.461818-17.687273l0.232727-0.139636z" fill="#FFA21F" p-id="17256"></path><path d="M462.429091 165.003636c26.112-3.258182 52.456727 3.723636 73.541818 19.502546 15.080727 11.915636 25.786182 28.858182 30.347636 47.848727 2.746182 12.706909 3.397818 25.832727 2.001455 38.772364-1.908364 13.591273-4.654545 27.042909-8.238545 40.308363a103.051636 103.051636 0 0 0-4.887273 29.323637c0.232727 3.723636 3.118545 6.749091 6.888727 7.121454 7.68-0.372364 15.173818-2.56 21.922909-6.237091 17.175273-8.098909 34.164364-16.523636 51.246546-24.762181a404.945455 404.945455 0 0 1 58.228363-20.619637 196.887273 196.887273 0 0 1 73.495273-6.190545c20.526545 2.234182 39.656727 11.915636 53.992727 27.322182 14.941091 18.478545 23.272727 41.751273 23.505455 65.815272 1.396364 25.367273-2.513455 50.734545-11.403637 74.472728-5.306182 9.309091-7.307636 20.200727-5.632 30.766545a19.083636 19.083636 0 0 0 15.685819 12.660364 186.042182 186.042182 0 0 1 81.547636 34.443636c17.966545 13.591273 32.256 31.650909 41.611636 52.596364 11.915636 27.554909 15.546182 58.181818 10.472728 87.970909a264.610909 264.610909 0 0 1-45.614546 108.776727 454.562909 454.562909 0 0 1-140.660363 129.256727 682.635636 682.635636 0 0 1-254.88291 88.994909c-89.646545 13.917091-181.108364 7.912727-268.334545-17.454545a397.917091 397.917091 0 0 1-142.894545-77.498182 274.571636 274.571636 0 0 1-85.038546-126.557091 318.603636 318.603636 0 0 1-2.978909-164.910545 572.043636 572.043636 0 0 1 79.266909-180.596364 782.661818 782.661818 0 0 1 154.670546-174.871273A586.472727 586.472727 0 0 1 356.305455 201.541818a278.621091 278.621091 0 0 1 105.890909-36.584727l0.232727 0.046545z m-14.568727 304.965819a467.735273 467.735273 0 0 0-181.76 48.314181 338.478545 338.478545 0 0 0-88.576 64.186182 207.732364 207.732364 0 0 0-57.949091 107.194182 165.888 165.888 0 0 0 24.994909 119.714909 258.420364 258.420364 0 0 0 107.985454 90.484364 426.961455 426.961455 0 0 0 167.051637 38.912 465.082182 465.082182 0 0 0 257.954909-65.024 290.071273 290.071273 0 0 0 86.248727-80.197818c22.807273-31.883636 34.722909-70.283636 33.978182-109.428364a171.892364 171.892364 0 0 0-22.341818-77.591273 226.676364 226.676364 0 0 0-56.413091-63.394909 349.184 349.184 0 0 0-135.168-62.045091 472.901818 472.901818 0 0 0-136.098909-11.077818h0.093091v-0.046545z" fill="#D81E06" p-id="17257"></path><path d="M433.152 564.270545a178.967273 178.967273 0 0 1 137.541818 46.824728 147.549091 147.549091 0 0 1 35.84 158.766545 185.856 185.856 0 0 1-91.089454 100.072727 198.516364 198.516364 0 0 1-164.584728 8.471273 163.514182 163.514182 0 0 1-61.021091-43.52 145.594182 145.594182 0 0 1-35.467636-86.341818 155.741091 155.741091 0 0 1 16.290909-78.894545 191.860364 191.860364 0 0 1 101.655273-91.601455 204.893091 204.893091 0 0 1 60.834909-13.777455z m38.446545 118.132364a23.179636 23.179636 0 0 0-10.705454 29.509818 21.736727 21.736727 0 0 0 28.020364 12.381091 23.086545 23.086545 0 0 0 13.032727-28.485818 23.272727 23.272727 0 0 0-30.347637-13.405091z m-97.652363 23.272727c-13.963636 1.954909-26.810182 8.843636-36.445091 19.549091a60.043636 60.043636 0 0 0-15.080727 50.036364c2.048 12.986182 8.843636 24.622545 18.850909 32.581818 11.543273 9.076364 26.018909 13.125818 40.354909 11.170909a61.207273 61.207273 0 0 0 52.736-67.770182 52.689455 52.689455 0 0 0-60.369455-45.614545z" fill="#2C2C2C" p-id="17258"></path></svg>