<?xml version="1.0" standalone="no"?><!DOCTYPE svg PUBLIC "-//W3C//DTD SVG 1.1//EN" "http://www.w3.org/Graphics/SVG/1.1/DTD/svg11.dtd"><svg t="1763360444922" class="icon" viewBox="0 0 1028 1024" version="1.1" xmlns="http://www.w3.org/2000/svg" p-id="9159" xmlns:xlink="http://www.w3.org/1999/xlink" width="200.78125" height="200"><path d="M693.238938 1024H4.530973V4.530973h1019.469027v1019.469027h-330.761062M518.547257 99.785628c-9.415363 1.427257-20.094867 0.475752-28.033133 4.685027-39.936 21.186832-79.029239 43.941381-118.648071 65.726301C292.365593 213.907257 212.529841 257.019469 133.437168 301.450195c-7.177062 4.032566-14.145699 15.808566-14.200071 24.032283-0.874478 132.055221-0.79292 264.119504-0.090619 396.179257 0.036248 6.955044 5.754336 17.004743 11.753345 20.34407a41148.148673 41148.148673 0 0 0 364.897416 200.341522c6.891611 3.742584 18.885097 4.290832 25.754053 0.838231 37.878938-19.030088 75.005735-39.573522 112.195965-59.958372 82.844319-45.409416 165.036177-92.060319 248.777628-135.738903 17.521274-9.143504 18.876035-19.523965 18.84885-34.915681-0.199363-110.931823-2.319858-221.92708 0.892601-332.763752 1.404602-48.445168-7.738903-77.887434-56.877309-101.693169-110.578407-53.57423-216.489912-116.776779-326.837239-178.330053z" fill="#ffffff" p-id="9160"></path><path d="M519.811398 100.918372c109.078655 60.420531 214.99469 123.62308 325.573098 177.197309 49.138407 23.810265 58.281912 53.248 56.877309 101.693169-3.21246 110.836673-1.091965 221.831929-0.892601 332.763752 0.027186 15.391717-1.327575 25.772177-18.84885 34.915681-83.741451 43.678584-165.93331 90.329487-248.777628 135.738903-37.19023 20.389381-74.317027 40.928283-112.195965 59.958372-6.868956 3.452602-18.862442 2.899823-25.754053-0.838231a41148.148673 41148.148673 0 0 1-364.897416-200.346053c-6.00354-3.334796-11.717097-13.384496-11.753345-20.34407-0.702301-132.055221-0.783858-264.119504 0.090619-396.174726 0.054372-8.223717 7.023009-19.999717 14.200071-24.032283 79.097204-44.430726 158.932956-87.538407 238.433416-131.253239 39.618832-21.78492 78.712071-44.539469 118.648071-65.726301 7.938265-4.213805 18.61777-3.25777 29.297274-3.552283m90.329487 196.698619L291.260035 756.976142c37.480212 0 69.813239 0.444035 102.110018-0.41685 5.713558-0.149522 13.271221-4.331611 16.619611-9.039292 40.370973-56.727788 80.234478-113.818053 119.980177-170.980814 53.547044-77.017487 107.048779-154.062159 160.160849-231.374159 11.798655-17.181451 21.87554-35.540956 35.685947-58.1777-41.630584 2.650619-77.86931 4.956885-115.675752 10.629664m19.773168 280.711929c-14.462867 21.567434-28.739965 43.261735-43.424849 64.675115-25.051752 36.519646-50.357239 72.867115-78.684885 113.808992 38.785133 0 72.269027 0.625274 105.689486-0.598089 5.722619-0.208425 12.550796-7.30846 16.506337-12.89515 44.439788-62.862726 88.498973-126.001841 132.42223-189.231576 5.86308-8.436673 10.384991-17.797664 17.208637-29.646159-18.237168 0-31.916177 1.359292-45.237239-0.249203-42.736142-5.151717-79.713416 0.507469-98.16354 46.333734-0.79292 1.966442-2.954195 3.375575-6.316177 7.802336M459.712566 290.014018c-12.075044-0.018124-24.286018 1.087434-36.202478-0.308106-19.166018-2.23377-30.874053 4.105062-41.168424 21.517592-16.492743 27.888142-37.022584 53.370336-55.62223 80.026054-29.193062 41.848071-58.195823 83.823009-87.212177 125.648424 2.872637 2.18846 3.946478 3.719929 5.056566 3.747115 13.565735 0.317168 27.389735-1.205239 40.665487 0.860885 47.557097 7.385487 77.864779-8.867115 102.767009-52.908177 34.680071-61.331257 78.870655-117.284248 121.090265-178.588318l-49.374018 0.004531z" fill="#DD1E38" p-id="9161"></path><path d="M610.924743 295.936c37.022584-3.991788 73.265841-6.298053 114.891894-8.948673-13.810407 22.636743-23.887292 40.996248-35.685947 58.1777-53.112071 77.312-106.613805 154.356673-160.156318 231.374159-39.75023 57.167292-79.609204 114.253027-119.980177 170.980814-3.35292 4.707681-10.910584 8.88977-16.628673 9.039292-32.292248 0.860885-64.625274 0.41685-102.105487 0.41685 107.909664-155.448637 213.395257-307.403894 319.664708-461.040142zM630.833841 576.951504c2.446726-3.049345 4.603469-4.458478 5.391858-6.42492 18.454655-45.826265 55.431929-51.485451 98.168071-46.333734 13.321062 1.603965 27.000071 0.249204 45.237239 0.249203-6.823646 11.848496-11.345558 21.209487-17.208637 29.646159-43.923257 63.229735-87.982442 126.36885-132.42223 189.231576-3.95554 5.58669-10.783717 12.686726-16.506337 12.89515-33.415929 1.223363-66.904354 0.598088-105.689486 0.598089 28.327646-40.941876 53.633133-77.284814 78.684885-113.808992 14.684885-21.413381 28.961982-43.107681 44.344637-66.052531zM461.923681 290.014018l47.167434-0.004531c-42.219611 61.304071-86.410195 117.257062-121.090265 178.588318-24.90223 44.041062-55.209912 60.298195-102.767009 52.903646-13.275752-2.061593-27.095221-0.543717-40.665487-0.860885-1.110088-0.022655-2.183929-1.554124-5.056566-3.742584 29.016354-41.820885 58.019115-83.800354 87.212177-125.643894 18.599646-26.660248 39.129487-52.142442 55.62223-80.030584 10.294372-17.412531 22.002407-23.751363 41.168424-21.517592 11.91646 1.391009 24.127434 0.289982 38.409062 0.308106z" fill="#ffffff" p-id="9162"></path></svg>