<?xml version="1.0" standalone="no"?><!DOCTYPE svg PUBLIC "-//W3C//DTD SVG 1.1//EN" "http://www.w3.org/Graphics/SVG/1.1/DTD/svg11.dtd"><svg t="1763539119909" class="icon" viewBox="0 0 1048 1024" version="1.1" xmlns="http://www.w3.org/2000/svg" p-id="3118" xmlns:xlink="http://www.w3.org/1999/xlink" width="204.6875" height="200"><path d="M289.966829 22.428098c32.218537-2.922146 64.437073 2.922146 93.758439 14.660682 67.409171 23.427122 131.87122 52.748488 193.411122 84.967025 105.496976 55.69561 205.124683 120.157659 301.830244 190.488975 41.034927 32.218537 84.992 64.462049 117.235512 105.496976 20.504976 23.452098 35.165659 55.69561 32.218537 87.914146-5.844293 38.087805-29.29639 70.331317-55.670634 96.705561-105.496976 105.496976-219.785366 202.202537-345.787317 281.325269-64.487024 41.034927-131.87122 76.17561-202.202537 102.574829-43.957073 17.582829-93.783415 32.218537-140.662634 26.374244-29.321366-2.947122-55.69561-14.660683-76.200585-38.112781-17.582829-20.504976-26.374244-43.957073-32.218537-70.331317v-2.922146c20.48-5.869268 41.009951-11.738537 64.437073-17.582829 87.914146-23.452098 175.828293-61.539902 257.898147-102.57483 87.914146-46.87922 172.906146-99.627707 252.003902-161.167609 26.39922-20.504976 55.69561-41.034927 67.434146-73.253464 11.713561-23.452098 8.766439-52.748488-5.869268-73.278439-14.660683-26.374244-38.11278-46.87922-58.617756-64.462049-26.374244-20.504976-55.69561-41.034927-84.992-55.695609-55.670634-35.140683-114.28839-64.437073-172.881171-96.680586a1426.731707 1426.731707 0 0 0-208.071805-87.914146c-32.218537-8.791415-64.462049-20.529951-96.705561-29.321366 2.922146-14.635707 8.791415-29.29639 14.660683-43.957073C222.532683 54.696585 254.75122 28.297366 289.941854 22.428098z" fill="#10ABF2" p-id="3119"></path><path d="M93.608585 142.585756c29.29639-14.660683 64.462049-11.738537 96.705561-5.869268-11.738537 43.957073-17.582829 90.836293-23.452097 134.793366 0 20.529951-2.922146 38.11278-5.844293 58.617756-2.947122 23.452098-2.947122 49.826341-5.869268 73.253463 0 29.321366-2.922146 55.69561-2.922147 84.992-2.947122 26.374244 0 55.69561-2.947121 82.044878 0 41.034927 0 82.069854 2.947121 123.079805 2.922146 61.539902 5.844293 126.026927 14.635708 187.566829v8.791415c-29.29639 5.844293-64.462049 11.713561-90.836293-8.791415-26.374244-20.529951-35.165659-55.69561-43.957073-87.914146a2079.843902 2079.843902 0 0 1-23.452098-307.699512c0-55.69561 5.869268-108.444098 14.660683-161.192586 5.869268-43.957073 14.660683-87.914146 29.296391-128.924097 5.869268-23.452098 20.529951-43.957073 41.034926-52.748488z" fill="#FF8F21" p-id="3120"></path><path d="M190.314146 133.794341h5.869269c32.218537 8.791415 64.462049 20.504976 96.705561 29.296391 70.331317 23.452098 140.662634 55.69561 208.046829 87.914146 58.617756 32.218537 117.235512 61.539902 172.906146 96.705561 29.29639 17.582829 58.617756 35.165659 84.992 55.69561 23.427122 17.557854 43.957073 38.087805 58.592781 64.437073 11.738537 20.529951 14.660683 49.826341 5.869268 73.278439-14.660683 32.218537-43.957073 52.748488-67.409171 73.253463-82.044878 64.487024-167.036878 117.235512-254.951024 164.114732-82.044878 43.957073-167.036878 79.122732-257.873171 102.574829-20.504976 5.844293-41.034927 11.713561-64.462049 17.58283-2.947122 0-8.791415 2.922146-11.738536 2.922146 0-5.869268 0-11.738537-2.922147-17.582829-8.791415-61.539902-11.738537-126.001951-14.660682-187.56683-2.922146-41.009951-2.922146-82.044878-2.922147-123.054829 0-26.374244 0-55.69561 2.922147-82.069853 0-29.29639 2.947122-55.670634 2.947121-84.967025 2.922146-23.452098 2.922146-49.826341 5.844293-73.278439 2.947122-20.504976 2.947122-38.087805 5.869268-58.59278 8.791415-46.904195 14.660683-93.783415 26.374244-140.662635z m120.132683 164.089757c-11.713561 2.947122-17.557854 17.582829-17.557853 29.321365V690.57561c0 11.738537 2.922146 26.374244 11.713561 29.29639 11.738537 2.947122 23.452098 0 32.218536-8.791415l246.184586-175.828292c11.713561-8.791415 20.48-20.504976 20.48-35.165659 0-14.635707-11.688585-23.427122-23.427122-32.218536-82.044878-55.69561-167.036878-111.366244-249.081757-167.036878-2.922146 0-11.738537-5.869268-20.504975-2.947122z" fill="#7DE621" p-id="3121"></path><path d="M310.446829 297.884098c8.81639-2.922146 17.607805 2.947122 23.477073 5.869268 82.044878 55.69561 167.011902 111.366244 249.081757 167.036878 11.713561 5.869268 23.427122 17.582829 23.427121 32.218536 0 14.660683-8.791415 26.39922-20.504975 35.190635l-246.15961 175.828292c-8.791415 5.844293-20.504976 11.713561-32.218536 8.791415-11.738537-5.869268-14.660683-20.529951-11.738537-29.321366v-143.58478c-2.922146-55.69561 0-108.419122 0-164.089756-2.922146-17.607805-2.922146-35.190634 0-55.69561-2.922146-14.660683 2.922146-29.29639 14.660683-32.218537z" fill="#FFFFFF" p-id="3122"></path></svg>