<?xml version="1.0" standalone="no"?><!DOCTYPE svg PUBLIC "-//W3C//DTD SVG 1.1//EN" "http://www.w3.org/Graphics/SVG/1.1/DTD/svg11.dtd"><svg t="1763479937695" class="icon" viewBox="0 0 1024 1024" version="1.1" xmlns="http://www.w3.org/2000/svg" p-id="8817" xmlns:xlink="http://www.w3.org/1999/xlink" width="200" height="200"><path d="M365.184 0h58.304L354.304 228.032v154.816h-57.152V228.032c-5.312-28.224-16.96-68.608-34.88-121.216A4994.752 4994.752 0 0 1 225.152 0h60.544l40.576 150.272L365.184 0z m195.392 123.456c-14.08-19.456-34.304-29.184-60.544-29.184-25.536 0-45.504 9.728-60.032 29.184-10.688 14.08-16 36.352-16 66.816v100.032c0 30.464 5.312 52.992 16 67.456 14.464 19.456 34.496 29.12 60.032 29.12 26.304 0 46.528-9.664 60.544-29.12 10.688-14.08 16-36.544 16-67.456V190.272c0-30.464-5.312-52.736-16-66.816z m-36.032 176.576c0 26.688-8.192 40-24.576 40s-24.512-13.376-24.512-40V180.032c0-26.304 8.192-39.424 24.576-39.424s24.576 13.184 24.576 39.424v120zM768 97.728v285.12h-52.032v-31.424c-20.16 23.616-39.808 35.392-58.88 35.392-17.472 0-28.736-7.04-33.664-21.12-3.072-9.152-4.544-23.424-4.544-42.88V97.728h52.032v209.728c0 12.544 0.192 19.2 0.576 20.032 1.152 8.384 5.12 12.544 12.032 12.544 10.304 0 21.12-8.192 32.576-24.576V97.728H768z" p-id="8818"></path><path d="M821.12 711.424v26.304h-51.392v-26.304c0-25.92 8.512-38.848 25.664-38.848s25.728 12.928 25.728 38.848z m-215.36-38.848c-8.832 0-17.344 4.16-25.728 12.544v172.032c8.384 8.384 16.96 12.608 25.728 12.608 14.784 0 22.272-12.8 22.272-38.336v-120.576c0-25.472-7.488-38.272-22.272-38.272z m329.664 56.576c0 89.152-4.928 155.84-14.848 200a108.544 108.544 0 0 1-33.152 56.64 100.16 100.16 0 0 1-58.304 26.24C759.04 1020.032 653.376 1024 512 1024c-141.312 0-247.04-4.032-317.184-12.032a101.44 101.44 0 0 1-58.56-26.24 104.192 104.192 0 0 1-32.832-56.64c-9.92-42.624-14.848-109.312-14.848-200 0-89.152 4.992-155.776 14.848-200a108.16 108.16 0 0 1 33.152-56.576c16.768-15.232 36.352-24.192 58.88-26.816C265.152 438.08 370.688 434.304 512 434.304c141.376 0 247.04 3.84 317.12 11.456 22.144 2.688 41.6 11.648 58.624 26.816 16.896 15.232 27.904 34.112 32.832 56.576 9.92 42.688 14.848 109.376 14.848 200zM330.304 533.184H152v53.696h60.032v325.12h57.152V586.88h61.12v-53.696z m154.24 96.576h-50.816v216c-11.456 16-22.272 24-32.576 24-6.848 0-10.88-4.032-12.032-12.032a159.808 159.808 0 0 1-0.576-20.032V629.76h-50.816v223.36c0 18.688 1.536 32.64 4.544 41.728 4.544 14.08 15.616 21.12 33.152 21.12 18.304 0 37.696-11.648 58.304-34.88v30.848h50.816V629.76z m194.304 85.12c0-27.84-1.728-46.656-5.12-56.64-6.528-21.312-20.032-32-40.64-32-19.008 0-36.736 10.304-53.12 30.848V533.184h-50.816v378.816h50.816v-27.456c17.152 20.928 34.88 31.424 53.12 31.424 20.608 0 34.112-10.496 40.64-31.424 3.392-10.304 5.12-29.312 5.12-57.152V714.88z m193.152 6.848c0-30.144-5.12-52.224-15.424-66.304-14.784-19.456-35.072-29.184-60.544-29.184-25.856 0-46.272 9.728-61.12 29.184-10.688 14.08-16 36.16-16 66.304v98.816c0 30.08 5.504 52.16 16.576 66.304 14.784 19.392 35.456 29.12 61.696 29.12 27.456 0 48-10.112 61.76-30.272 6.848-10.304 10.88-20.608 12.032-30.848 0.768-3.456 1.152-14.528 1.152-33.152v-7.488h-52.032c0 19.52-0.384 31.104-1.152 34.88-2.688 13.76-10.304 20.608-22.848 20.608-17.472 0-26.24-13.184-26.24-39.488v-49.664h102.272v-58.816z" fill="#ED1C24" p-id="8819"></path></svg>
